<svg width="70" height="70" viewBox="0 0 70 70" fill="none" xmlns="http://www.w3.org/2000/svg">
<path d="M18.2292 8.75C15.7151 8.75 13.3041 9.74869 11.5264 11.5264C9.74869 13.3041 8.75 15.7151 8.75 18.2292V51.7708C8.75 54.2849 9.74869 56.6959 11.5264 58.4736C13.3041 60.2513 15.7151 61.25 18.2292 61.25H38.4183C38.0846 60.1883 37.9154 59.0817 37.9167 57.9688V57.6683C37.9167 57.4 37.9312 57.1375 37.9546 56.875H18.2292C16.8755 56.875 15.5772 56.3372 14.62 55.38C13.6628 54.4228 13.125 53.1245 13.125 51.7708V18.2292C13.125 15.4117 15.4117 13.125 18.2292 13.125H51.7708C54.5883 13.125 56.875 15.4117 56.875 18.2292V32.5063C58.5335 33.001 60.039 33.9093 61.25 35.1458V18.2292C61.25 15.7151 60.2513 13.3041 58.4736 11.5264C56.6959 9.74869 54.2849 8.75 51.7708 8.75H18.2292ZM50.4 27.0667C50.6149 26.8664 50.7873 26.6249 50.9069 26.3566C51.0264 26.0882 51.0907 25.7986 51.0959 25.5049C51.1011 25.2111 51.047 24.9194 50.937 24.647C50.827 24.3746 50.6632 24.1272 50.4555 23.9195C50.2478 23.7118 50.0004 23.548 49.728 23.438C49.4556 23.328 49.1639 23.2739 48.8701 23.2791C48.5764 23.2843 48.2868 23.3486 48.0184 23.4681C47.7501 23.5877 47.5086 23.7601 47.3083 23.975L29.1579 42.105L22.6917 35.6417C22.277 35.2553 21.7285 35.0449 21.1618 35.0549C20.5951 35.0649 20.0544 35.2945 19.6536 35.6953C19.2528 36.0961 19.0232 36.6368 19.0132 37.2035C19.0032 37.7702 19.2136 38.3187 19.6 38.7333L27.6063 46.7425C28.0164 47.1521 28.5724 47.3822 29.1521 47.3822C29.7318 47.3822 30.2878 47.1521 30.6979 46.7425L50.3971 27.0696L50.4 27.0667ZM61.25 42.2917C61.25 44.2255 60.4818 46.0802 59.1143 47.4477C57.7469 48.8151 55.8922 49.5833 53.9583 49.5833C52.0245 49.5833 50.1698 48.8151 48.8023 47.4477C47.4349 46.0802 46.6667 44.2255 46.6667 42.2917C46.6667 40.3578 47.4349 38.5031 48.8023 37.1357C50.1698 35.7682 52.0245 35 53.9583 35C55.8922 35 57.7469 35.7682 59.1143 37.1357C60.4818 38.5031 61.25 40.3578 61.25 42.2917ZM67.0833 57.9688C67.0833 62.5071 63.3325 67.0833 53.9583 67.0833C44.5842 67.0833 40.8333 62.5246 40.8333 57.9688V57.6683C40.8333 54.81 43.1492 52.5 46.0046 52.5H61.9121C64.7704 52.5 67.0833 54.8129 67.0833 57.6683V57.9688Z" fill="url(#paint0_linear_141_6)"/>
<defs>
<linearGradient id="paint0_linear_141_6" x1="8.75" y1="8.75" x2="68.1772" y2="11.4916" gradientUnits="userSpaceOnUse">
<stop stop-color="#FF8521"/>
<stop offset="1" stop-color="#F9B233"/>
</linearGradient>
</defs>
</svg>
