<svg width="171" height="27" viewBox="0 0 171 27" fill="none" xmlns="http://www.w3.org/2000/svg">
<path d="M1.08 26C0.888 26 0.708 25.928 0.54 25.784C0.396 25.616 0.324 25.436 0.324 25.244C0.324 25.124 0.336 25.016 0.36 24.92L8.82 1.808C8.892 1.544 9.036 1.316 9.252 1.124C9.492 0.907998 9.816 0.799998 10.224 0.799998H15.552C15.96 0.799998 16.272 0.907998 16.488 1.124C16.728 1.316 16.884 1.544 16.956 1.808L25.38 24.92C25.428 25.016 25.452 25.124 25.452 25.244C25.452 25.436 25.368 25.616 25.2 25.784C25.056 25.928 24.876 26 24.66 26H20.232C19.872 26 19.596 25.916 19.404 25.748C19.236 25.556 19.128 25.388 19.08 25.244L17.676 21.572H8.064L6.696 25.244C6.648 25.388 6.54 25.556 6.372 25.748C6.204 25.916 5.916 26 5.508 26H1.08ZM9.54 16.388H16.236L12.852 6.884L9.54 16.388ZM29.1895 26C28.9255 26 28.7095 25.916 28.5415 25.748C28.3735 25.58 28.2895 25.364 28.2895 25.1V1.7C28.2895 1.436 28.3735 1.22 28.5415 1.052C28.7095 0.883999 28.9255 0.799998 29.1895 0.799998H38.9815C42.0775 0.799998 44.5135 1.52 46.2895 2.96C48.0895 4.376 48.9895 6.392 48.9895 9.008C48.9895 10.712 48.5695 12.152 47.7295 13.328C46.9135 14.504 45.8335 15.392 44.4895 15.992L49.4575 24.848C49.5295 24.992 49.5655 25.124 49.5655 25.244C49.5655 25.436 49.4815 25.616 49.3135 25.784C49.1695 25.928 48.9895 26 48.7735 26H44.0215C43.5655 26 43.2295 25.892 43.0135 25.676C42.7975 25.436 42.6415 25.22 42.5455 25.028L38.4415 17.108H34.7335V25.1C34.7335 25.364 34.6495 25.58 34.4815 25.748C34.3135 25.916 34.0975 26 33.8335 26H29.1895ZM34.7335 12.032H38.9095C40.0375 12.032 40.8775 11.756 41.4295 11.204C42.0055 10.652 42.2935 9.896 42.2935 8.936C42.2935 8 42.0175 7.244 41.4655 6.668C40.9375 6.092 40.0855 5.804 38.9095 5.804H34.7335V12.032ZM62.5762 26.36C60.1762 26.36 58.1842 26.024 56.6002 25.352C55.0162 24.656 53.8162 23.756 53.0002 22.652C52.1842 21.548 51.7522 20.372 51.7042 19.124C51.7042 18.932 51.7762 18.764 51.9202 18.62C52.0882 18.452 52.2802 18.368 52.4962 18.368H57.0322C57.3682 18.368 57.6202 18.428 57.7882 18.548C57.9802 18.668 58.1482 18.824 58.2922 19.016C58.4842 19.376 58.7482 19.724 59.0842 20.06C59.4442 20.396 59.9002 20.672 60.4522 20.888C61.0282 21.08 61.7362 21.176 62.5762 21.176C63.9682 21.176 65.0122 20.96 65.7082 20.528C66.4282 20.096 66.7882 19.508 66.7882 18.764C66.7882 18.236 66.5962 17.804 66.2122 17.468C65.8282 17.108 65.2042 16.796 64.3402 16.532C63.5002 16.244 62.3722 15.956 60.9562 15.668C59.1322 15.284 57.5722 14.792 56.2762 14.192C55.0042 13.568 54.0322 12.764 53.3602 11.78C52.6882 10.772 52.3522 9.524 52.3522 8.036C52.3522 6.572 52.7602 5.264 53.5762 4.112C54.4162 2.96 55.5802 2.06 57.0682 1.412C58.5562 0.763999 60.3202 0.439999 62.3602 0.439999C64.0162 0.439999 65.4682 0.655999 66.7162 1.088C67.9882 1.52 69.0562 2.096 69.9202 2.816C70.7842 3.536 71.4322 4.304 71.8642 5.12C72.3202 5.912 72.5602 6.692 72.5842 7.46C72.5842 7.652 72.5122 7.832 72.3682 8C72.2242 8.144 72.0442 8.216 71.8282 8.216H67.0762C66.8122 8.216 66.5842 8.168 66.3922 8.072C66.2002 7.976 66.0322 7.82 65.8882 7.604C65.7442 7.076 65.3602 6.62 64.7362 6.236C64.1362 5.828 63.3442 5.624 62.3602 5.624C61.3042 5.624 60.4762 5.816 59.8762 6.2C59.3002 6.56 59.0122 7.124 59.0122 7.892C59.0122 8.372 59.1682 8.792 59.4802 9.152C59.8162 9.512 60.3562 9.824 61.1002 10.088C61.8682 10.352 62.9122 10.628 64.2322 10.916C66.4162 11.324 68.1802 11.84 69.5242 12.464C70.8682 13.064 71.8522 13.856 72.4762 14.84C73.1002 15.8 73.4122 17.012 73.4122 18.476C73.4122 20.108 72.9442 21.524 72.0082 22.724C71.0962 23.9 69.8242 24.8 68.1922 25.424C66.5602 26.048 64.6882 26.36 62.5762 26.36ZM77.9161 26C77.6521 26 77.4361 25.916 77.2681 25.748C77.1001 25.58 77.0161 25.364 77.0161 25.1V1.7C77.0161 1.436 77.1001 1.22 77.2681 1.052C77.4361 0.883999 77.6521 0.799998 77.9161 0.799998H94.7281C94.9921 0.799998 95.2081 0.883999 95.3761 1.052C95.5441 1.22 95.6281 1.436 95.6281 1.7V5.084C95.6281 5.348 95.5441 5.564 95.3761 5.732C95.2081 5.9 94.9921 5.984 94.7281 5.984H83.2441V10.844H93.9361C94.2001 10.844 94.4161 10.94 94.5841 11.132C94.7521 11.3 94.8361 11.516 94.8361 11.78V14.912C94.8361 15.152 94.7521 15.368 94.5841 15.56C94.4161 15.728 94.2001 15.812 93.9361 15.812H83.2441V20.816H95.0161C95.2801 20.816 95.4961 20.9 95.6641 21.068C95.8321 21.236 95.9161 21.452 95.9161 21.716V25.1C95.9161 25.364 95.8321 25.58 95.6641 25.748C95.4961 25.916 95.2801 26 95.0161 26H77.9161ZM100.908 26C100.644 26 100.428 25.916 100.26 25.748C100.092 25.58 100.008 25.364 100.008 25.1V1.7C100.008 1.436 100.092 1.22 100.26 1.052C100.428 0.883999 100.644 0.799998 100.908 0.799998H104.724C105.132 0.799998 105.42 0.895998 105.588 1.088C105.78 1.256 105.9 1.388 105.948 1.484L114.732 15.344V1.7C114.732 1.436 114.816 1.22 114.984 1.052C115.152 0.883999 115.368 0.799998 115.632 0.799998H119.952C120.216 0.799998 120.432 0.883999 120.6 1.052C120.768 1.22 120.852 1.436 120.852 1.7V25.1C120.852 25.34 120.768 25.556 120.6 25.748C120.432 25.916 120.216 26 119.952 26H116.1C115.716 26 115.428 25.904 115.236 25.712C115.068 25.52 114.96 25.388 114.912 25.316L106.128 11.996V25.1C106.128 25.364 106.044 25.58 105.876 25.748C105.708 25.916 105.492 26 105.228 26H100.908ZM124.443 26C124.251 26 124.071 25.928 123.903 25.784C123.759 25.616 123.687 25.436 123.687 25.244C123.687 25.124 123.699 25.016 123.723 24.92L132.183 1.808C132.255 1.544 132.399 1.316 132.615 1.124C132.855 0.907998 133.179 0.799998 133.587 0.799998H138.915C139.323 0.799998 139.635 0.907998 139.851 1.124C140.091 1.316 140.247 1.544 140.319 1.808L148.743 24.92C148.791 25.016 148.815 25.124 148.815 25.244C148.815 25.436 148.731 25.616 148.563 25.784C148.419 25.928 148.239 26 148.023 26H143.595C143.235 26 142.959 25.916 142.767 25.748C142.599 25.556 142.491 25.388 142.443 25.244L141.039 21.572H131.427L130.059 25.244C130.011 25.388 129.903 25.556 129.735 25.748C129.567 25.916 129.279 26 128.871 26H124.443ZM132.903 16.388H139.599L136.215 6.884L132.903 16.388ZM152.553 26C152.289 26 152.073 25.916 151.905 25.748C151.737 25.58 151.653 25.364 151.653 25.1V1.7C151.653 1.436 151.737 1.22 151.905 1.052C152.073 0.883999 152.289 0.799998 152.553 0.799998H157.305C157.545 0.799998 157.749 0.883999 157.917 1.052C158.109 1.22 158.205 1.436 158.205 1.7V20.564H169.077C169.341 20.564 169.557 20.66 169.725 20.852C169.917 21.02 170.013 21.236 170.013 21.5V25.1C170.013 25.364 169.917 25.58 169.725 25.748C169.557 25.916 169.341 26 169.077 26H152.553Z" fill="url(#paint0_linear_25_307)"/>
<defs>
<linearGradient id="paint0_linear_25_307" x1="0" y1="-8" x2="168.893" y2="22.985" gradientUnits="userSpaceOnUse">
<stop stop-color="#52C2F2"/>
<stop offset="1" stop-color="#0682B7"/>
</linearGradient>
</defs>
</svg>
