<svg width="334" height="35" viewBox="0 0 334 35" fill="none" xmlns="http://www.w3.org/2000/svg">
<path d="M1.08 27C0.888 27 0.708 26.928 0.54 26.784C0.396 26.616 0.324 26.436 0.324 26.244C0.324 26.124 0.336 26.016 0.36 25.92L8.82 2.808C8.892 2.544 9.036 2.316 9.252 2.124C9.492 1.908 9.816 1.8 10.224 1.8H15.552C15.96 1.8 16.272 1.908 16.488 2.124C16.728 2.316 16.884 2.544 16.956 2.808L25.38 25.92C25.428 26.016 25.452 26.124 25.452 26.244C25.452 26.436 25.368 26.616 25.2 26.784C25.056 26.928 24.876 27 24.66 27H20.232C19.872 27 19.596 26.916 19.404 26.748C19.236 26.556 19.128 26.388 19.08 26.244L17.676 22.572H8.064L6.696 26.244C6.648 26.388 6.54 26.556 6.372 26.748C6.204 26.916 5.916 27 5.508 27H1.08ZM9.54 17.388H16.236L12.852 7.884L9.54 17.388ZM29.1895 27C28.9255 27 28.7095 26.916 28.5415 26.748C28.3735 26.58 28.2895 26.364 28.2895 26.1V2.7C28.2895 2.436 28.3735 2.22 28.5415 2.052C28.7095 1.884 28.9255 1.8 29.1895 1.8H38.9815C42.0775 1.8 44.5135 2.52 46.2895 3.96C48.0895 5.376 48.9895 7.392 48.9895 10.008C48.9895 11.712 48.5695 13.152 47.7295 14.328C46.9135 15.504 45.8335 16.392 44.4895 16.992L49.4575 25.848C49.5295 25.992 49.5655 26.124 49.5655 26.244C49.5655 26.436 49.4815 26.616 49.3135 26.784C49.1695 26.928 48.9895 27 48.7735 27H44.0215C43.5655 27 43.2295 26.892 43.0135 26.676C42.7975 26.436 42.6415 26.22 42.5455 26.028L38.4415 18.108H34.7335V26.1C34.7335 26.364 34.6495 26.58 34.4815 26.748C34.3135 26.916 34.0975 27 33.8335 27H29.1895ZM34.7335 13.032H38.9095C40.0375 13.032 40.8775 12.756 41.4295 12.204C42.0055 11.652 42.2935 10.896 42.2935 9.936C42.2935 9 42.0175 8.244 41.4655 7.668C40.9375 7.092 40.0855 6.804 38.9095 6.804H34.7335V13.032ZM62.5762 27.36C60.1762 27.36 58.1842 27.024 56.6002 26.352C55.0162 25.656 53.8162 24.756 53.0002 23.652C52.1842 22.548 51.7522 21.372 51.7042 20.124C51.7042 19.932 51.7762 19.764 51.9202 19.62C52.0882 19.452 52.2802 19.368 52.4962 19.368H57.0322C57.3682 19.368 57.6202 19.428 57.7882 19.548C57.9802 19.668 58.1482 19.824 58.2922 20.016C58.4842 20.376 58.7482 20.724 59.0842 21.06C59.4442 21.396 59.9002 21.672 60.4522 21.888C61.0282 22.08 61.7362 22.176 62.5762 22.176C63.9682 22.176 65.0122 21.96 65.7082 21.528C66.4282 21.096 66.7882 20.508 66.7882 19.764C66.7882 19.236 66.5962 18.804 66.2122 18.468C65.8282 18.108 65.2042 17.796 64.3402 17.532C63.5002 17.244 62.3722 16.956 60.9562 16.668C59.1322 16.284 57.5722 15.792 56.2762 15.192C55.0042 14.568 54.0322 13.764 53.3602 12.78C52.6882 11.772 52.3522 10.524 52.3522 9.036C52.3522 7.572 52.7602 6.264 53.5762 5.112C54.4162 3.96 55.5802 3.06 57.0682 2.412C58.5562 1.764 60.3202 1.44 62.3602 1.44C64.0162 1.44 65.4682 1.656 66.7162 2.088C67.9882 2.52 69.0562 3.096 69.9202 3.816C70.7842 4.536 71.4322 5.304 71.8642 6.12C72.3202 6.912 72.5602 7.692 72.5842 8.46C72.5842 8.652 72.5122 8.832 72.3682 9C72.2242 9.144 72.0442 9.216 71.8282 9.216H67.0762C66.8122 9.216 66.5842 9.168 66.3922 9.072C66.2002 8.976 66.0322 8.82 65.8882 8.604C65.7442 8.076 65.3602 7.62 64.7362 7.236C64.1362 6.828 63.3442 6.624 62.3602 6.624C61.3042 6.624 60.4762 6.816 59.8762 7.2C59.3002 7.56 59.0122 8.124 59.0122 8.892C59.0122 9.372 59.1682 9.792 59.4802 10.152C59.8162 10.512 60.3562 10.824 61.1002 11.088C61.8682 11.352 62.9122 11.628 64.2322 11.916C66.4162 12.324 68.1802 12.84 69.5242 13.464C70.8682 14.064 71.8522 14.856 72.4762 15.84C73.1002 16.8 73.4122 18.012 73.4122 19.476C73.4122 21.108 72.9442 22.524 72.0082 23.724C71.0962 24.9 69.8242 25.8 68.1922 26.424C66.5602 27.048 64.6882 27.36 62.5762 27.36ZM77.9161 27C77.6521 27 77.4361 26.916 77.2681 26.748C77.1001 26.58 77.0161 26.364 77.0161 26.1V2.7C77.0161 2.436 77.1001 2.22 77.2681 2.052C77.4361 1.884 77.6521 1.8 77.9161 1.8H94.7281C94.9921 1.8 95.2081 1.884 95.3761 2.052C95.5441 2.22 95.6281 2.436 95.6281 2.7V6.084C95.6281 6.348 95.5441 6.564 95.3761 6.732C95.2081 6.9 94.9921 6.984 94.7281 6.984H83.2441V11.844H93.9361C94.2001 11.844 94.4161 11.94 94.5841 12.132C94.7521 12.3 94.8361 12.516 94.8361 12.78V15.912C94.8361 16.152 94.7521 16.368 94.5841 16.56C94.4161 16.728 94.2001 16.812 93.9361 16.812H83.2441V21.816H95.0161C95.2801 21.816 95.4961 21.9 95.6641 22.068C95.8321 22.236 95.9161 22.452 95.9161 22.716V26.1C95.9161 26.364 95.8321 26.58 95.6641 26.748C95.4961 26.916 95.2801 27 95.0161 27H77.9161ZM100.908 27C100.644 27 100.428 26.916 100.26 26.748C100.092 26.58 100.008 26.364 100.008 26.1V2.7C100.008 2.436 100.092 2.22 100.26 2.052C100.428 1.884 100.644 1.8 100.908 1.8H104.724C105.132 1.8 105.42 1.896 105.588 2.088C105.78 2.256 105.9 2.388 105.948 2.484L114.732 16.344V2.7C114.732 2.436 114.816 2.22 114.984 2.052C115.152 1.884 115.368 1.8 115.632 1.8H119.952C120.216 1.8 120.432 1.884 120.6 2.052C120.768 2.22 120.852 2.436 120.852 2.7V26.1C120.852 26.34 120.768 26.556 120.6 26.748C120.432 26.916 120.216 27 119.952 27H116.1C115.716 27 115.428 26.904 115.236 26.712C115.068 26.52 114.96 26.388 114.912 26.316L106.128 12.996V26.1C106.128 26.364 106.044 26.58 105.876 26.748C105.708 26.916 105.492 27 105.228 27H100.908ZM124.443 27C124.251 27 124.071 26.928 123.903 26.784C123.759 26.616 123.687 26.436 123.687 26.244C123.687 26.124 123.699 26.016 123.723 25.92L132.183 2.808C132.255 2.544 132.399 2.316 132.615 2.124C132.855 1.908 133.179 1.8 133.587 1.8H138.915C139.323 1.8 139.635 1.908 139.851 2.124C140.091 2.316 140.247 2.544 140.319 2.808L148.743 25.92C148.791 26.016 148.815 26.124 148.815 26.244C148.815 26.436 148.731 26.616 148.563 26.784C148.419 26.928 148.239 27 148.023 27H143.595C143.235 27 142.959 26.916 142.767 26.748C142.599 26.556 142.491 26.388 142.443 26.244L141.039 22.572H131.427L130.059 26.244C130.011 26.388 129.903 26.556 129.735 26.748C129.567 26.916 129.279 27 128.871 27H124.443ZM132.903 17.388H139.599L136.215 7.884L132.903 17.388ZM152.553 27C152.289 27 152.073 26.916 151.905 26.748C151.737 26.58 151.653 26.364 151.653 26.1V2.7C151.653 2.436 151.737 2.22 151.905 2.052C152.073 1.884 152.289 1.8 152.553 1.8H157.305C157.545 1.8 157.749 1.884 157.917 2.052C158.109 2.22 158.205 2.436 158.205 2.7V21.564H169.077C169.341 21.564 169.557 21.66 169.725 21.852C169.917 22.02 170.013 22.236 170.013 22.5V26.1C170.013 26.364 169.917 26.58 169.725 26.748C169.557 26.916 169.341 27 169.077 27H152.553ZM190.286 27.36C188.006 27.36 186.05 26.988 184.418 26.244C182.81 25.5 181.55 24.408 180.638 22.968C179.75 21.528 179.258 19.74 179.162 17.604C179.138 16.62 179.126 15.564 179.126 14.436C179.126 13.308 179.138 12.228 179.162 11.196C179.258 9.108 179.762 7.344 180.674 5.904C181.586 4.44 182.858 3.336 184.49 2.592C186.122 1.824 188.054 1.44 190.286 1.44C191.87 1.44 193.334 1.644 194.678 2.052C196.022 2.436 197.198 3.012 198.206 3.78C199.214 4.524 199.994 5.436 200.546 6.516C201.122 7.572 201.422 8.772 201.446 10.116C201.47 10.332 201.398 10.512 201.23 10.656C201.086 10.8 200.906 10.872 200.69 10.872H195.83C195.518 10.872 195.278 10.812 195.11 10.692C194.942 10.548 194.798 10.296 194.678 9.936C194.342 8.664 193.79 7.8 193.022 7.344C192.278 6.864 191.354 6.624 190.25 6.624C188.93 6.624 187.886 6.996 187.118 7.74C186.35 8.46 185.93 9.672 185.858 11.376C185.786 13.344 185.786 15.36 185.858 17.424C185.93 19.128 186.35 20.352 187.118 21.096C187.886 21.816 188.93 22.176 190.25 22.176C191.354 22.176 192.29 21.936 193.058 21.456C193.826 20.976 194.366 20.112 194.678 18.864C194.774 18.504 194.906 18.264 195.074 18.144C195.266 18 195.518 17.928 195.83 17.928H200.69C200.906 17.928 201.086 18 201.23 18.144C201.398 18.288 201.47 18.468 201.446 18.684C201.422 20.028 201.122 21.24 200.546 22.32C199.994 23.376 199.214 24.288 198.206 25.056C197.198 25.8 196.022 26.376 194.678 26.784C193.334 27.168 191.87 27.36 190.286 27.36ZM205.735 27C205.471 27 205.255 26.916 205.087 26.748C204.919 26.58 204.835 26.364 204.835 26.1V2.34C204.835 2.076 204.919 1.86 205.087 1.692C205.255 1.524 205.471 1.44 205.735 1.44H209.983C210.247 1.44 210.463 1.524 210.631 1.692C210.799 1.86 210.883 2.076 210.883 2.34V26.1C210.883 26.364 210.799 26.58 210.631 26.748C210.463 26.916 210.247 27 209.983 27H205.735ZM223.776 27.36C220.944 27.36 218.688 26.592 217.008 25.056C215.328 23.52 214.452 21.24 214.38 18.216C214.38 18.048 214.38 17.832 214.38 17.568C214.38 17.304 214.38 17.1 214.38 16.956C214.452 15.06 214.872 13.44 215.64 12.096C216.432 10.728 217.512 9.696 218.88 9C220.272 8.28 221.892 7.92 223.74 7.92C225.852 7.92 227.592 8.34 228.96 9.18C230.352 10.02 231.396 11.16 232.092 12.6C232.788 14.04 233.136 15.684 233.136 17.532V18.396C233.136 18.66 233.04 18.876 232.848 19.044C232.68 19.212 232.476 19.296 232.236 19.296H220.716C220.716 19.32 220.716 19.356 220.716 19.404C220.716 19.452 220.716 19.5 220.716 19.548C220.74 20.244 220.86 20.88 221.076 21.456C221.292 22.032 221.628 22.488 222.084 22.824C222.54 23.16 223.092 23.328 223.74 23.328C224.22 23.328 224.616 23.256 224.928 23.112C225.264 22.944 225.54 22.764 225.756 22.572C225.972 22.356 226.14 22.176 226.26 22.032C226.476 21.792 226.644 21.648 226.764 21.6C226.908 21.528 227.124 21.492 227.412 21.492H231.876C232.116 21.492 232.308 21.564 232.452 21.708C232.62 21.828 232.692 22.008 232.668 22.248C232.644 22.656 232.44 23.148 232.056 23.724C231.672 24.3 231.108 24.876 230.364 25.452C229.644 26.004 228.732 26.46 227.628 26.82C226.524 27.18 225.24 27.36 223.776 27.36ZM220.716 15.732H226.8V15.66C226.8 14.892 226.68 14.22 226.44 13.644C226.224 13.068 225.876 12.624 225.396 12.312C224.94 12 224.388 11.844 223.74 11.844C223.092 11.844 222.54 12 222.084 12.312C221.652 12.624 221.316 13.068 221.076 13.644C220.836 14.22 220.716 14.892 220.716 15.66V15.732ZM242.127 27.36C240.831 27.36 239.667 27.12 238.635 26.64C237.627 26.136 236.823 25.464 236.223 24.624C235.623 23.784 235.323 22.836 235.323 21.78C235.323 20.076 236.019 18.732 237.411 17.748C238.803 16.74 240.651 16.056 242.955 15.696L247.455 15.012V14.508C247.455 13.644 247.275 12.984 246.915 12.528C246.555 12.072 245.895 11.844 244.935 11.844C244.263 11.844 243.711 11.976 243.279 12.24C242.871 12.504 242.547 12.864 242.307 13.32C242.091 13.632 241.791 13.788 241.407 13.788H237.375C237.111 13.788 236.907 13.716 236.763 13.572C236.619 13.404 236.559 13.212 236.583 12.996C236.583 12.564 236.739 12.072 237.051 11.52C237.387 10.944 237.891 10.38 238.563 9.828C239.235 9.276 240.099 8.82 241.155 8.46C242.211 8.1 243.483 7.92 244.971 7.92C246.531 7.92 247.863 8.1 248.967 8.46C250.071 8.82 250.959 9.324 251.631 9.972C252.327 10.62 252.843 11.388 253.179 12.276C253.515 13.14 253.683 14.1 253.683 15.156V26.1C253.683 26.364 253.587 26.58 253.395 26.748C253.227 26.916 253.023 27 252.783 27H248.607C248.343 27 248.127 26.916 247.959 26.748C247.791 26.58 247.707 26.364 247.707 26.1V24.84C247.395 25.296 246.975 25.716 246.447 26.1C245.919 26.484 245.295 26.784 244.575 27C243.879 27.24 243.063 27.36 242.127 27.36ZM243.819 23.256C244.515 23.256 245.139 23.112 245.691 22.824C246.267 22.512 246.711 22.044 247.023 21.42C247.359 20.772 247.527 19.968 247.527 19.008V18.504L244.467 19.044C243.339 19.236 242.511 19.536 241.983 19.944C241.479 20.328 241.227 20.784 241.227 21.312C241.227 21.72 241.347 22.068 241.587 22.356C241.827 22.644 242.139 22.872 242.523 23.04C242.907 23.184 243.339 23.256 243.819 23.256ZM258.645 27C258.381 27 258.165 26.916 257.997 26.748C257.829 26.58 257.745 26.364 257.745 26.1V9.18C257.745 8.916 257.829 8.7 257.997 8.532C258.165 8.364 258.381 8.28 258.645 8.28H262.785C263.049 8.28 263.265 8.364 263.433 8.532C263.601 8.7 263.685 8.916 263.685 9.18V10.548C264.309 9.804 265.125 9.18 266.133 8.676C267.141 8.172 268.329 7.92 269.697 7.92C271.089 7.92 272.313 8.232 273.369 8.856C274.449 9.48 275.289 10.404 275.889 11.628C276.513 12.828 276.825 14.304 276.825 16.056V26.1C276.825 26.364 276.729 26.58 276.537 26.748C276.369 26.916 276.165 27 275.925 27H271.389C271.149 27 270.933 26.916 270.741 26.748C270.573 26.58 270.489 26.364 270.489 26.1V16.272C270.489 15.144 270.213 14.28 269.661 13.68C269.133 13.056 268.341 12.744 267.285 12.744C266.301 12.744 265.509 13.056 264.909 13.68C264.333 14.28 264.045 15.144 264.045 16.272V26.1C264.045 26.364 263.949 26.58 263.757 26.748C263.589 26.916 263.385 27 263.145 27H258.645ZM281.743 27C281.479 27 281.263 26.916 281.095 26.748C280.927 26.58 280.843 26.364 280.843 26.1V9.18C280.843 8.916 280.927 8.7 281.095 8.532C281.263 8.364 281.479 8.28 281.743 8.28H285.991C286.231 8.28 286.435 8.364 286.603 8.532C286.795 8.7 286.891 8.916 286.891 9.18V26.1C286.891 26.364 286.795 26.58 286.603 26.748C286.435 26.916 286.231 27 285.991 27H281.743ZM281.707 5.58C281.443 5.58 281.227 5.496 281.059 5.328C280.891 5.16 280.807 4.944 280.807 4.68V1.476C280.807 1.212 280.891 0.995999 281.059 0.827998C281.227 0.635999 281.443 0.539999 281.707 0.539999H285.991C286.255 0.539999 286.471 0.635999 286.639 0.827998C286.831 0.995999 286.927 1.212 286.927 1.476V4.68C286.927 4.944 286.831 5.16 286.639 5.328C286.471 5.496 286.255 5.58 285.991 5.58H281.707ZM293.133 27C292.869 27 292.653 26.916 292.485 26.748C292.317 26.58 292.233 26.364 292.233 26.1V9.18C292.233 8.916 292.317 8.7 292.485 8.532C292.653 8.364 292.869 8.28 293.133 8.28H297.273C297.537 8.28 297.753 8.364 297.921 8.532C298.089 8.7 298.173 8.916 298.173 9.18V10.548C298.797 9.804 299.613 9.18 300.621 8.676C301.629 8.172 302.817 7.92 304.185 7.92C305.577 7.92 306.801 8.232 307.857 8.856C308.937 9.48 309.777 10.404 310.377 11.628C311.001 12.828 311.313 14.304 311.313 16.056V26.1C311.313 26.364 311.217 26.58 311.025 26.748C310.857 26.916 310.653 27 310.413 27H305.877C305.637 27 305.421 26.916 305.229 26.748C305.061 26.58 304.977 26.364 304.977 26.1V16.272C304.977 15.144 304.701 14.28 304.149 13.68C303.621 13.056 302.829 12.744 301.773 12.744C300.789 12.744 299.997 13.056 299.397 13.68C298.821 14.28 298.533 15.144 298.533 16.272V26.1C298.533 26.364 298.437 26.58 298.245 26.748C298.077 26.916 297.873 27 297.633 27H293.133ZM324.511 34.92C322.663 34.92 321.127 34.68 319.903 34.2C318.703 33.72 317.743 33.144 317.023 32.472C316.327 31.8 315.823 31.128 315.511 30.456C315.199 29.808 315.031 29.292 315.007 28.908C314.983 28.644 315.067 28.428 315.259 28.26C315.451 28.092 315.679 28.008 315.943 28.008H320.515C320.731 28.008 320.911 28.056 321.055 28.152C321.223 28.272 321.355 28.464 321.451 28.728C321.571 28.992 321.727 29.268 321.919 29.556C322.135 29.844 322.423 30.072 322.783 30.24C323.167 30.432 323.683 30.528 324.331 30.528C325.051 30.528 325.651 30.408 326.131 30.168C326.611 29.952 326.971 29.58 327.211 29.052C327.451 28.548 327.571 27.864 327.571 27V24.588C327.019 25.188 326.311 25.68 325.447 26.064C324.583 26.424 323.539 26.604 322.315 26.604C321.091 26.604 320.011 26.424 319.075 26.064C318.139 25.704 317.359 25.164 316.735 24.444C316.111 23.724 315.619 22.848 315.259 21.816C314.923 20.784 314.719 19.596 314.647 18.252C314.623 17.628 314.623 17.004 314.647 16.38C314.719 15.084 314.923 13.92 315.259 12.888C315.595 11.856 316.075 10.968 316.699 10.224C317.347 9.48 318.139 8.916 319.075 8.532C320.011 8.124 321.091 7.92 322.315 7.92C323.611 7.92 324.715 8.172 325.627 8.676C326.563 9.156 327.331 9.768 327.931 10.512V9.18C327.931 8.94 328.015 8.736 328.183 8.568C328.351 8.376 328.567 8.28 328.831 8.28H332.971C333.235 8.28 333.451 8.376 333.619 8.568C333.811 8.736 333.907 8.94 333.907 9.18V26.496C333.907 28.32 333.535 29.856 332.791 31.104C332.047 32.352 330.979 33.3 329.587 33.948C328.195 34.596 326.503 34.92 324.511 34.92ZM324.259 21.924C325.027 21.924 325.651 21.756 326.131 21.42C326.611 21.084 326.959 20.652 327.175 20.124C327.415 19.596 327.547 19.032 327.571 18.432C327.595 18.168 327.607 17.796 327.607 17.316C327.607 16.836 327.595 16.476 327.571 16.236C327.547 15.612 327.415 15.036 327.175 14.508C326.959 13.98 326.611 13.56 326.131 13.248C325.651 12.912 325.027 12.744 324.259 12.744C323.467 12.744 322.831 12.912 322.351 13.248C321.895 13.584 321.559 14.04 321.343 14.616C321.151 15.192 321.031 15.828 320.983 16.524C320.959 17.052 320.959 17.592 320.983 18.144C321.031 18.84 321.151 19.476 321.343 20.052C321.559 20.628 321.895 21.084 322.351 21.42C322.831 21.756 323.467 21.924 324.259 21.924Z" fill="black"/>
</svg>
