<svg width="70" height="70" viewBox="0 0 70 70" fill="none" xmlns="http://www.w3.org/2000/svg">
<path d="M25.5205 67.0833C24.0622 67.0833 22.7866 66.6088 21.6938 65.66C20.5991 64.713 19.9545 63.5104 19.7601 62.052L14.583 23.3333H55.4163L50.2393 62.052C50.0448 63.5104 49.4002 64.713 48.3055 65.66C47.2127 66.6088 45.9372 67.0833 44.4788 67.0833H25.5205ZM25.5205 61.25H44.4788L48.708 29.1666H21.2184L25.5205 61.25ZM34.9997 46.6666C37.4302 46.6666 39.4962 45.8159 41.1976 44.1145C42.899 42.4132 43.7497 40.3472 43.7497 37.9166V32.0833H37.9163V37.9166C37.9163 38.743 37.6373 39.4352 37.0793 39.9933C36.5193 40.5533 35.8261 40.8333 34.9997 40.8333C34.1733 40.8333 33.4811 40.5533 32.923 39.9933C32.363 39.4352 32.083 38.743 32.083 37.9166V32.0833H26.2497V37.9166C26.2497 40.3472 27.1004 42.4132 28.8018 44.1145C30.5031 45.8159 32.5691 46.6666 34.9997 46.6666ZM43.7497 20.4166C42.5344 20.4166 41.5019 19.9908 40.6522 19.1391C39.8005 18.2894 39.3747 17.2569 39.3747 16.0416C39.3747 14.8263 39.8005 13.7938 40.6522 12.9441C41.5019 12.0925 42.5344 11.6666 43.7497 11.6666C44.965 11.6666 45.9975 12.0925 46.8472 12.9441C47.6988 13.7938 48.1247 14.8263 48.1247 16.0416C48.1247 17.2569 47.6988 18.2894 46.8472 19.1391C45.9975 19.9908 44.965 20.4166 43.7497 20.4166ZM29.1663 17.5C27.1247 17.5 25.399 16.7951 23.9893 15.3854C22.5795 13.9757 21.8747 12.25 21.8747 10.2083C21.8747 8.16663 22.5795 6.44093 23.9893 5.03121C25.399 3.62149 27.1247 2.91663 29.1663 2.91663C31.208 2.91663 32.9337 3.62149 34.3434 5.03121C35.7531 6.44093 36.458 8.16663 36.458 10.2083C36.458 12.25 35.7531 13.9757 34.3434 15.3854C32.9337 16.7951 31.208 17.5 29.1663 17.5ZM44.4788 61.25H25.5205H44.4788Z" fill="url(#paint0_linear_34_290)"/>
<defs>
<linearGradient id="paint0_linear_34_290" x1="14.583" y1="2.91663" x2="56.2347" y2="4.13941" gradientUnits="userSpaceOnUse">
<stop stop-color="#52C2F2"/>
<stop offset="1" stop-color="#0682B7"/>
</linearGradient>
</defs>
</svg>
