<svg width="70" height="70" viewBox="0 0 70 70" fill="none" xmlns="http://www.w3.org/2000/svg">
<path d="M25.5205 67.0834C24.0622 67.0834 22.7866 66.609 21.6938 65.6601C20.5991 64.7131 19.9545 63.5105 19.7601 62.0522L14.583 23.3334H55.4163L50.2393 62.0522C50.0448 63.5105 49.4002 64.7131 48.3055 65.6601C47.2127 66.609 45.9372 67.0834 44.4788 67.0834H25.5205ZM25.5205 61.2501H44.4788L48.708 29.1667H21.2184L25.5205 61.2501ZM34.9997 46.6667C37.4302 46.6667 39.4962 45.8161 41.1976 44.1147C42.899 42.4133 43.7497 40.3473 43.7497 37.9167V32.0834H37.9163V37.9167C37.9163 38.7431 37.6373 39.4354 37.0793 39.9934C36.5193 40.5534 35.8261 40.8334 34.9997 40.8334C34.1733 40.8334 33.4811 40.5534 32.923 39.9934C32.363 39.4354 32.083 38.7431 32.083 37.9167V32.0834H26.2497V37.9167C26.2497 40.3473 27.1004 42.4133 28.8018 44.1147C30.5031 45.8161 32.5691 46.6667 34.9997 46.6667ZM43.7497 20.4167C42.5344 20.4167 41.5019 19.9909 40.6522 19.1392C39.8005 18.2895 39.3747 17.257 39.3747 16.0417C39.3747 14.8265 39.8005 13.794 40.6522 12.9442C41.5019 12.0926 42.5344 11.6667 43.7497 11.6667C44.965 11.6667 45.9975 12.0926 46.8472 12.9442C47.6988 13.794 48.1247 14.8265 48.1247 16.0417C48.1247 17.257 47.6988 18.2895 46.8472 19.1392C45.9975 19.9909 44.965 20.4167 43.7497 20.4167ZM29.1663 17.5001C27.1247 17.5001 25.399 16.7952 23.9893 15.3855C22.5795 13.9758 21.8747 12.2501 21.8747 10.2084C21.8747 8.16675 22.5795 6.44105 23.9893 5.03133C25.399 3.62161 27.1247 2.91675 29.1663 2.91675C31.208 2.91675 32.9337 3.62161 34.3434 5.03133C35.7531 6.44105 36.458 8.16675 36.458 10.2084C36.458 12.2501 35.7531 13.9758 34.3434 15.3855C32.9337 16.7952 31.208 17.5001 29.1663 17.5001ZM44.4788 61.2501H25.5205H44.4788Z" fill="url(#paint0_linear_34_290)"/>
<defs>
<linearGradient id="paint0_linear_34_290" x1="14.583" y1="2.91675" x2="56.2347" y2="4.13953" gradientUnits="userSpaceOnUse">
<stop stop-color="#52C2F2"/>
<stop offset="1" stop-color="#0682B7"/>
</linearGradient>
</defs>
</svg>
