<svg width="1024" height="1024" viewBox="0 0 1024 1024" fill="none" xmlns="http://www.w3.org/2000/svg">
<path d="M885.6 230.2L779.1 123.8C771.587 116.254 762.658 110.267 752.825 106.183C742.991 102.099 732.448 99.9974 721.8 100C700.1 100 679.7 108.5 664.4 123.8L549.8 238.4C542.254 245.913 536.267 254.842 532.183 264.675C528.099 274.509 525.998 285.052 526 295.7C526 317.4 534.5 337.8 549.8 353.1L633.6 436.9C613.984 480.136 586.712 519.469 553.1 553C519.572 586.694 480.243 614.065 437 633.8L353.2 550C345.687 542.454 336.758 536.467 326.925 532.383C317.091 528.299 306.548 526.197 295.9 526.2C274.2 526.2 253.8 534.7 238.5 550L123.8 664.5C116.245 672.026 110.253 680.973 106.168 690.823C102.084 700.674 99.9876 711.236 100 721.9C100 743.6 108.5 764 123.8 779.3L230.1 885.6C254.5 910.1 288.2 924 322.8 924C330.1 924 337.1 923.4 344 922.2C478.8 900 612.5 828.3 720.4 720.5C828.2 612.8 899.8 479.2 922.3 344C929.1 302.7 915.4 260.2 885.6 230.2V230.2Z" fill="white"/>
</svg>
