<svg width="70" height="70" viewBox="0 0 70 70" fill="none" xmlns="http://www.w3.org/2000/svg">
<path d="M49.9931 13.1426C44.1087 13.3044 39.5478 14.9013 35.1072 16.4457C30.3581 18.0951 25.8759 19.6504 19.6656 19.7138C15.5159 19.7794 11.3597 19.0619 7.27562 17.6488L4.375 16.6469V54.0138L5.83187 54.5322C9.63594 55.8776 13.5253 56.6541 17.3972 56.8379C18.0119 56.8663 18.6134 56.8816 19.2041 56.8816C25.795 56.8816 30.8416 55.1316 35.735 53.4429C40.8931 51.6579 45.7581 49.9713 52.3972 50.2841C55.9162 50.4649 59.3897 51.1606 62.7069 52.3491L65.625 53.3816V15.9994L64.1856 15.4744C60.4634 14.1188 56.5559 13.3399 52.5984 13.1644C51.7305 13.1259 50.8615 13.1186 49.9931 13.1426ZM50.1113 17.4869C50.855 17.4651 51.6163 17.4651 52.4059 17.4957C53.2241 17.5307 54.0422 17.6051 54.8581 17.7013C55.1909 19.0739 56.0429 20.2639 57.2348 21.0215C58.4268 21.779 59.866 22.045 61.25 21.7635V41.6741C60.5334 41.5283 59.7948 41.5279 59.0781 41.6731C58.3614 41.8183 57.6811 42.106 57.0777 42.5192C56.4744 42.9324 55.9602 43.4626 55.5658 44.0784C55.1713 44.6942 54.9046 45.3829 54.7816 46.1038C54.057 46.0293 53.3304 45.9753 52.6028 45.9419C45.1325 45.6138 39.6244 47.4929 34.3 49.3391C29.1353 51.1285 24.2419 52.8194 17.6072 52.5044C16.7809 52.4612 15.9564 52.3883 15.1353 52.2857C14.7997 50.9169 13.9475 49.7311 12.7574 48.9764C11.5672 48.2216 10.1312 47.9566 8.75 48.2366V28.326C9.47088 28.4727 10.214 28.472 10.9346 28.324C11.6552 28.176 12.3385 27.8838 12.9432 27.4648C13.5479 27.0459 14.0616 26.5089 14.4534 25.8862C14.8451 25.2636 15.1069 24.5681 15.2228 23.8416C16.7213 23.9969 18.2197 24.0866 19.7137 24.0626C26.6372 23.9926 31.6706 22.2404 36.5422 20.5472C40.8319 19.0532 44.9203 17.6488 50.1113 17.4869ZM35 24.0626C30.1744 24.0626 26.25 28.9691 26.25 35.0001C26.25 41.031 30.1744 45.9376 35 45.9376C39.8256 45.9376 43.75 41.031 43.75 35.0001C43.75 28.9691 39.8256 24.0626 35 24.0626ZM35 28.4376C37.3713 28.4376 39.375 31.4432 39.375 35.0001C39.375 38.5569 37.3713 41.5626 35 41.5626C32.6287 41.5626 30.625 38.5569 30.625 35.0001C30.625 31.4432 32.6287 28.4376 35 28.4376ZM51.4062 28.4376C50.536 28.4376 49.7014 28.7833 49.0861 29.3986C48.4707 30.014 48.125 30.8486 48.125 31.7188C48.125 32.589 48.4707 33.4236 49.0861 34.039C49.7014 34.6544 50.536 35.0001 51.4062 35.0001C52.2765 35.0001 53.1111 34.6544 53.7264 34.039C54.3418 33.4236 54.6875 32.589 54.6875 31.7188C54.6875 30.8486 54.3418 30.014 53.7264 29.3986C53.1111 28.7833 52.2765 28.4376 51.4062 28.4376ZM18.5938 35.0001C17.7235 35.0001 16.8889 35.3458 16.2736 35.9611C15.6582 36.5765 15.3125 37.4111 15.3125 38.2813C15.3125 39.1515 15.6582 39.9861 16.2736 40.6015C16.8889 41.2169 17.7235 41.5626 18.5938 41.5626C19.464 41.5626 20.2986 41.2169 20.9139 40.6015C21.5293 39.9861 21.875 39.1515 21.875 38.2813C21.875 37.4111 21.5293 36.5765 20.9139 35.9611C20.2986 35.3458 19.464 35.0001 18.5938 35.0001Z" fill="url(#paint0_linear_140_4)"/>
<defs>
<linearGradient id="paint0_linear_140_4" x1="4.375" y1="13.1288" x2="66.6466" y2="17.1504" gradientUnits="userSpaceOnUse">
<stop stop-color="#63E144"/>
<stop offset="0.989583" stop-color="#37985E"/>
</linearGradient>
</defs>
</svg>
