<svg width="70" height="70" viewBox="0 0 70 70" fill="none" xmlns="http://www.w3.org/2000/svg">
<path d="M27.7086 20.4167C30.1294 20.4167 32.0836 22.3708 32.0836 24.7917C32.0836 27.2125 30.1294 29.1667 27.7086 29.1667C25.2878 29.1667 23.3336 27.2125 23.3336 24.7917C23.3336 22.3708 25.2878 20.4167 27.7086 20.4167ZM42.2919 40.8334C44.7128 40.8334 46.6669 42.7875 46.6669 45.2084C46.6669 47.6292 44.7128 49.5834 42.2919 49.5834C39.8711 49.5834 37.9169 47.6292 37.9169 45.2084C37.9169 42.7875 39.8711 40.8334 42.2919 40.8334ZM24.5294 49.5834L20.4169 45.4709L45.4711 20.4167L49.5836 24.5292L24.5294 49.5834ZM54.3961 8.31252L56.1753 19.5708L66.4128 24.7917L61.2503 35L66.4419 45.2084L56.1169 50.4292L54.3378 61.6875L42.9919 59.9084L34.9128 67.9875L26.8044 59.7917L15.5461 61.6584L13.7378 50.3125L3.55859 45.1209L8.75026 34.9125L3.58776 24.7917L13.8253 19.5125L15.6044 8.37085L26.8919 10.2084L35.0003 2.0271L43.0503 10.0917L54.3961 8.31252ZM58.6253 27.3292L51.0419 23.3333L49.5836 14.9042L41.1253 16.1292L35.0003 10.2084L28.8753 16.1292L20.4169 14.9042L18.9586 23.3333L11.3753 27.3292L15.1669 35L11.3753 42.6709L18.9586 46.6667L20.4169 55.0959L28.8753 53.8708L35.0003 59.7917L41.1253 53.8708L49.5836 55.0959L51.0419 46.6667L58.6253 42.6709L54.8336 35L58.6253 27.3292V27.3292Z" fill="url(#paint0_linear_184_2)"/>
<defs>
<linearGradient id="paint0_linear_184_2" x1="3.55859" y1="67.9875" x2="73.9346" y2="38.8309" gradientUnits="userSpaceOnUse">
<stop stop-color="#F5A4D5"/>
<stop offset="1" stop-color="#FF2FAD"/>
</linearGradient>
</defs>
</svg>
