<svg width="70" height="70" viewBox="0 0 70 70" fill="none" xmlns="http://www.w3.org/2000/svg">
<path d="M60.2587 58.3333L40.4545 11.1125C39.3753 8.66246 37.7128 6.67913 35.467 5.16246C33.2503 3.67496 30.7712 2.91663 28.0295 2.91663C25.5795 2.91663 23.3337 3.52913 21.292 4.75413C19.2503 5.97913 17.617 7.64163 16.4212 9.68329C15.2253 11.725 14.5837 14 14.5837 16.45L14.6712 26.25H5.92116V42.1458C7.72949 41.3291 9.65449 40.9208 11.667 40.9208V32.1708H26.2503C27.9128 32.1708 29.2837 32.7541 30.4212 33.8916C31.5587 35 32.0837 36.3708 32.0837 37.9166V58.4208H25.9878C25.5407 60.5258 24.6011 62.4948 23.2462 64.1666H37.917V37.9166C37.917 35.8166 37.3337 33.8916 36.3128 32.0833C35.292 30.275 33.8628 28.9041 32.0837 27.8833C30.392 26.8333 28.4378 26.25 26.2503 26.25H20.417V16.45C20.417 14.35 21.1462 12.5708 22.6337 11.0541C24.1212 9.53746 25.9295 8.74996 28.0295 8.74996C29.5753 8.74996 31.0045 9.21663 32.2587 10.0916C33.5128 10.9666 34.4462 12.075 35.0003 13.4458L53.842 58.3333L46.667 58.4208V64.1666H67.0837V58.4208L60.2587 58.3333ZM11.667 52.5C13.2712 52.5 14.5837 53.8125 14.5837 55.4166C14.5837 57.0208 13.2712 58.3333 11.667 58.3333C10.0628 58.3333 8.75033 57.0208 8.75033 55.4166C8.75033 53.8125 10.0628 52.5 11.667 52.5ZM11.667 46.6666C6.82533 46.6666 2.91699 50.575 2.91699 55.4166C2.91699 60.2583 6.82533 64.1666 11.667 64.1666C16.5087 64.1666 20.417 60.2583 20.417 55.4166C20.417 50.575 16.5087 46.6666 11.667 46.6666Z" fill="url(#paint0_linear_140_2)"/>
<defs>
<linearGradient id="paint0_linear_140_2" x1="2.91699" y1="2.91663" x2="68.2733" y2="6.07529" gradientUnits="userSpaceOnUse">
<stop stop-color="#CF4140"/>
<stop offset="1" stop-color="#EA4A49"/>
</linearGradient>
</defs>
</svg>
